<mxfile host="app.diagrams.net" modified="2024-03-04T17:21:13.273Z" agent="Mozilla/5.0 (X11; Linux x86_64; rv:122.0) Gecko/20100101 Firefox/122.0" etag="9b93RFJp5AzeU8QvmRWO" version="23.1.5" type="device">
  <diagram name="Page-1" id="e7e014a7-5840-1c2e-5031-d8a46d1fe8dd">
    <mxGraphModel dx="1687" dy="920" grid="1" gridSize="10" guides="1" tooltips="1" connect="1" arrows="1" fold="1" page="1" pageScale="1" pageWidth="1169" pageHeight="826" background="none" math="0" shadow="0">
      <root>
        <mxCell id="0" />
        <mxCell id="1" parent="0" />
        <mxCell id="PJY7Iu9sFLVoZzJT46Wz-41" value="&lt;div&gt;Email User&lt;/div&gt;" style="swimlane;horizontal=0;whiteSpace=wrap;html=1;" vertex="1" parent="1">
          <mxGeometry x="80" width="1090" height="240" as="geometry" />
        </mxCell>
        <mxCell id="PJY7Iu9sFLVoZzJT46Wz-44" style="edgeStyle=orthogonalEdgeStyle;rounded=0;orthogonalLoop=1;jettySize=auto;html=1;" edge="1" parent="PJY7Iu9sFLVoZzJT46Wz-41" source="PJY7Iu9sFLVoZzJT46Wz-42" target="PJY7Iu9sFLVoZzJT46Wz-43">
          <mxGeometry relative="1" as="geometry" />
        </mxCell>
        <mxCell id="PJY7Iu9sFLVoZzJT46Wz-42" value="&lt;div style=&quot;font-size: 10px;&quot;&gt;&lt;font style=&quot;font-size: 10px;&quot;&gt;Checks that an email&amp;nbsp;&lt;/font&gt;&lt;/div&gt;&lt;div style=&quot;font-size: 10px;&quot;&gt;&lt;font style=&quot;font-size: 10px;&quot;&gt;looks like phishing&lt;/font&gt;&lt;/div&gt;" style="points=[[0.145,0.145,0],[0.5,0,0],[0.855,0.145,0],[1,0.5,0],[0.855,0.855,0],[0.5,1,0],[0.145,0.855,0],[0,0.5,0]];shape=mxgraph.bpmn.event;html=1;verticalLabelPosition=bottom;labelBackgroundColor=#ffffff;verticalAlign=top;align=center;perimeter=ellipsePerimeter;outlineConnect=0;aspect=fixed;outline=standard;symbol=general;" vertex="1" parent="PJY7Iu9sFLVoZzJT46Wz-41">
          <mxGeometry x="78" y="90" width="40" height="40" as="geometry" />
        </mxCell>
        <mxCell id="PJY7Iu9sFLVoZzJT46Wz-43" value="&lt;font style=&quot;font-size: 10px;&quot;&gt;Flag that email&lt;/font&gt;" style="points=[[0.25,0,0],[0.5,0,0],[0.75,0,0],[1,0.25,0],[1,0.5,0],[1,0.75,0],[0.75,1,0],[0.5,1,0],[0.25,1,0],[0,0.75,0],[0,0.5,0],[0,0.25,0]];shape=mxgraph.bpmn.task;whiteSpace=wrap;rectStyle=rounded;size=10;html=1;container=1;expand=0;collapsible=0;taskMarker=abstract;" vertex="1" parent="PJY7Iu9sFLVoZzJT46Wz-41">
          <mxGeometry x="188" y="70" width="120" height="80" as="geometry" />
        </mxCell>
        <mxCell id="PJY7Iu9sFLVoZzJT46Wz-94" value="&lt;font style=&quot;font-size: 10px;&quot;&gt;Results received&lt;/font&gt;" style="points=[[0.145,0.145,0],[0.5,0,0],[0.855,0.145,0],[1,0.5,0],[0.855,0.855,0],[0.5,1,0],[0.145,0.855,0],[0,0.5,0]];shape=mxgraph.bpmn.event;html=1;verticalLabelPosition=bottom;labelBackgroundColor=#ffffff;verticalAlign=top;align=center;perimeter=ellipsePerimeter;outlineConnect=0;aspect=fixed;outline=catching;symbol=message;" vertex="1" parent="PJY7Iu9sFLVoZzJT46Wz-41">
          <mxGeometry x="840" y="90" width="40" height="40" as="geometry" />
        </mxCell>
        <mxCell id="PJY7Iu9sFLVoZzJT46Wz-96" style="edgeStyle=orthogonalEdgeStyle;rounded=0;orthogonalLoop=1;jettySize=auto;html=1;entryX=0;entryY=0.5;entryDx=0;entryDy=0;entryPerimeter=0;" edge="1" parent="PJY7Iu9sFLVoZzJT46Wz-41" source="PJY7Iu9sFLVoZzJT46Wz-43" target="PJY7Iu9sFLVoZzJT46Wz-94">
          <mxGeometry relative="1" as="geometry" />
        </mxCell>
        <mxCell id="PJY7Iu9sFLVoZzJT46Wz-97" value="&lt;div&gt;&lt;font style=&quot;font-size: 10px;&quot;&gt;User checks&amp;nbsp;&lt;/font&gt;&lt;/div&gt;&lt;div&gt;&lt;font style=&quot;font-size: 10px;&quot;&gt;the results&lt;/font&gt;&lt;/div&gt;" style="points=[[0.145,0.145,0],[0.5,0,0],[0.855,0.145,0],[1,0.5,0],[0.855,0.855,0],[0.5,1,0],[0.145,0.855,0],[0,0.5,0]];shape=mxgraph.bpmn.event;html=1;verticalLabelPosition=bottom;labelBackgroundColor=#ffffff;verticalAlign=top;align=center;perimeter=ellipsePerimeter;outlineConnect=0;aspect=fixed;outline=end;symbol=terminate2;" vertex="1" parent="PJY7Iu9sFLVoZzJT46Wz-41">
          <mxGeometry x="1020" y="90" width="40" height="40" as="geometry" />
        </mxCell>
        <mxCell id="PJY7Iu9sFLVoZzJT46Wz-98" style="edgeStyle=orthogonalEdgeStyle;rounded=0;orthogonalLoop=1;jettySize=auto;html=1;entryX=0;entryY=0.5;entryDx=0;entryDy=0;entryPerimeter=0;" edge="1" parent="PJY7Iu9sFLVoZzJT46Wz-41" source="PJY7Iu9sFLVoZzJT46Wz-94" target="PJY7Iu9sFLVoZzJT46Wz-97">
          <mxGeometry relative="1" as="geometry" />
        </mxCell>
        <mxCell id="PJY7Iu9sFLVoZzJT46Wz-45" value="&lt;div&gt;Phishing detection tool&lt;/div&gt;" style="swimlane;horizontal=0;whiteSpace=wrap;html=1;" vertex="1" parent="1">
          <mxGeometry x="80" y="280" width="1090" height="480" as="geometry" />
        </mxCell>
        <mxCell id="PJY7Iu9sFLVoZzJT46Wz-46" style="edgeStyle=orthogonalEdgeStyle;rounded=0;orthogonalLoop=1;jettySize=auto;html=1;" edge="1" parent="PJY7Iu9sFLVoZzJT46Wz-45" target="PJY7Iu9sFLVoZzJT46Wz-48">
          <mxGeometry relative="1" as="geometry">
            <mxPoint x="146" y="80" as="sourcePoint" />
          </mxGeometry>
        </mxCell>
        <mxCell id="PJY7Iu9sFLVoZzJT46Wz-61" style="edgeStyle=orthogonalEdgeStyle;rounded=0;orthogonalLoop=1;jettySize=auto;html=1;" edge="1" parent="PJY7Iu9sFLVoZzJT46Wz-45" source="PJY7Iu9sFLVoZzJT46Wz-48" target="PJY7Iu9sFLVoZzJT46Wz-60">
          <mxGeometry relative="1" as="geometry" />
        </mxCell>
        <mxCell id="PJY7Iu9sFLVoZzJT46Wz-48" value="&lt;font style=&quot;font-size: 10px;&quot;&gt;Email metadata preprocessing&lt;/font&gt;" style="points=[[0.25,0,0],[0.5,0,0],[0.75,0,0],[1,0.25,0],[1,0.5,0],[1,0.75,0],[0.75,1,0],[0.5,1,0],[0.25,1,0],[0,0.75,0],[0,0.5,0],[0,0.25,0]];shape=mxgraph.bpmn.task;whiteSpace=wrap;rectStyle=rounded;size=10;html=1;container=1;expand=0;collapsible=0;taskMarker=abstract;" vertex="1" parent="PJY7Iu9sFLVoZzJT46Wz-45">
          <mxGeometry x="190" y="40" width="120" height="80" as="geometry" />
        </mxCell>
        <mxCell id="PJY7Iu9sFLVoZzJT46Wz-54" value="" style="endArrow=none;html=1;rounded=0;" edge="1" parent="PJY7Iu9sFLVoZzJT46Wz-45">
          <mxGeometry width="50" height="50" relative="1" as="geometry">
            <mxPoint x="20" y="160" as="sourcePoint" />
            <mxPoint x="1090" y="160" as="targetPoint" />
          </mxGeometry>
        </mxCell>
        <mxCell id="PJY7Iu9sFLVoZzJT46Wz-56" value="" style="endArrow=none;html=1;rounded=0;" edge="1" parent="PJY7Iu9sFLVoZzJT46Wz-45">
          <mxGeometry width="50" height="50" relative="1" as="geometry">
            <mxPoint x="20" y="320" as="sourcePoint" />
            <mxPoint x="1090" y="320" as="targetPoint" />
          </mxGeometry>
        </mxCell>
        <mxCell id="PJY7Iu9sFLVoZzJT46Wz-57" value="&lt;div&gt;&lt;font style=&quot;font-size: 12px;&quot;&gt;Metadata Analysis&lt;/font&gt;&lt;/div&gt;&lt;div&gt;&lt;font style=&quot;font-size: 12px;&quot;&gt;Model&lt;/font&gt;&lt;/div&gt;" style="text;html=1;align=center;verticalAlign=middle;whiteSpace=wrap;rounded=0;rotation=-90;" vertex="1" parent="PJY7Iu9sFLVoZzJT46Wz-45">
          <mxGeometry x="-24" y="65" width="130" height="30" as="geometry" />
        </mxCell>
        <mxCell id="PJY7Iu9sFLVoZzJT46Wz-58" value="&lt;div&gt;&lt;font style=&quot;font-size: 12px;&quot;&gt;Text Analysis&lt;/font&gt;&lt;/div&gt;&lt;div&gt;&lt;font style=&quot;font-size: 12px;&quot;&gt;Model&lt;font style=&quot;font-size: 12px;&quot;&gt;&lt;br&gt;&lt;/font&gt;&lt;/font&gt;&lt;/div&gt;" style="text;html=1;align=center;verticalAlign=middle;whiteSpace=wrap;rounded=0;rotation=-90;" vertex="1" parent="PJY7Iu9sFLVoZzJT46Wz-45">
          <mxGeometry x="-24" y="225" width="130" height="30" as="geometry" />
        </mxCell>
        <mxCell id="PJY7Iu9sFLVoZzJT46Wz-59" value="&lt;div&gt;&lt;font style=&quot;font-size: 12px;&quot;&gt;Emotion Analysis&lt;/font&gt;&lt;/div&gt;&lt;div&gt;&lt;font style=&quot;font-size: 12px;&quot;&gt;Model&lt;font style=&quot;font-size: 12px;&quot;&gt;&lt;br&gt;&lt;/font&gt;&lt;/font&gt;&lt;/div&gt;" style="text;html=1;align=center;verticalAlign=middle;whiteSpace=wrap;rounded=0;rotation=-90;" vertex="1" parent="PJY7Iu9sFLVoZzJT46Wz-45">
          <mxGeometry x="-24" y="380" width="130" height="30" as="geometry" />
        </mxCell>
        <mxCell id="PJY7Iu9sFLVoZzJT46Wz-64" style="edgeStyle=orthogonalEdgeStyle;rounded=0;orthogonalLoop=1;jettySize=auto;html=1;entryX=0;entryY=0.5;entryDx=0;entryDy=0;" edge="1" parent="PJY7Iu9sFLVoZzJT46Wz-45" source="PJY7Iu9sFLVoZzJT46Wz-60" target="PJY7Iu9sFLVoZzJT46Wz-62">
          <mxGeometry relative="1" as="geometry" />
        </mxCell>
        <mxCell id="PJY7Iu9sFLVoZzJT46Wz-60" value="&lt;font style=&quot;font-size: 10px;&quot;&gt;Analyzes metadata&lt;br&gt;&lt;/font&gt;" style="points=[[0.25,0,0],[0.5,0,0],[0.75,0,0],[1,0.25,0],[1,0.5,0],[1,0.75,0],[0.75,1,0],[0.5,1,0],[0.25,1,0],[0,0.75,0],[0,0.5,0],[0,0.25,0]];shape=mxgraph.bpmn.task;whiteSpace=wrap;rectStyle=rounded;size=10;html=1;container=1;expand=0;collapsible=0;taskMarker=abstract;" vertex="1" parent="PJY7Iu9sFLVoZzJT46Wz-45">
          <mxGeometry x="360" y="40" width="120" height="80" as="geometry" />
        </mxCell>
        <mxCell id="PJY7Iu9sFLVoZzJT46Wz-68" style="edgeStyle=orthogonalEdgeStyle;rounded=0;orthogonalLoop=1;jettySize=auto;html=1;" edge="1" parent="PJY7Iu9sFLVoZzJT46Wz-45" source="PJY7Iu9sFLVoZzJT46Wz-62" target="PJY7Iu9sFLVoZzJT46Wz-67">
          <mxGeometry relative="1" as="geometry">
            <Array as="points">
              <mxPoint x="555" y="140" />
              <mxPoint x="420" y="140" />
            </Array>
          </mxGeometry>
        </mxCell>
        <mxCell id="PJY7Iu9sFLVoZzJT46Wz-62" value="" style="rhombus;whiteSpace=wrap;html=1;" vertex="1" parent="PJY7Iu9sFLVoZzJT46Wz-45">
          <mxGeometry x="525" y="50" width="60" height="60" as="geometry" />
        </mxCell>
        <mxCell id="PJY7Iu9sFLVoZzJT46Wz-66" value="&lt;font style=&quot;font-size: 10px;&quot;&gt;Is phishing?&lt;/font&gt;" style="text;html=1;align=center;verticalAlign=middle;whiteSpace=wrap;rounded=0;" vertex="1" parent="PJY7Iu9sFLVoZzJT46Wz-45">
          <mxGeometry x="532.5" y="60" width="45" height="30" as="geometry" />
        </mxCell>
        <mxCell id="PJY7Iu9sFLVoZzJT46Wz-67" value="&lt;font style=&quot;font-size: 10px;&quot;&gt;Email text preprocessing&lt;br&gt;&lt;/font&gt;" style="points=[[0.25,0,0],[0.5,0,0],[0.75,0,0],[1,0.25,0],[1,0.5,0],[1,0.75,0],[0.75,1,0],[0.5,1,0],[0.25,1,0],[0,0.75,0],[0,0.5,0],[0,0.25,0]];shape=mxgraph.bpmn.task;whiteSpace=wrap;rectStyle=rounded;size=10;html=1;container=1;expand=0;collapsible=0;taskMarker=abstract;" vertex="1" parent="PJY7Iu9sFLVoZzJT46Wz-45">
          <mxGeometry x="360" y="200" width="120" height="80" as="geometry" />
        </mxCell>
        <mxCell id="PJY7Iu9sFLVoZzJT46Wz-80" style="edgeStyle=orthogonalEdgeStyle;rounded=0;orthogonalLoop=1;jettySize=auto;html=1;entryX=0;entryY=0.5;entryDx=0;entryDy=0;" edge="1" parent="PJY7Iu9sFLVoZzJT46Wz-45" source="PJY7Iu9sFLVoZzJT46Wz-69" target="PJY7Iu9sFLVoZzJT46Wz-78">
          <mxGeometry relative="1" as="geometry" />
        </mxCell>
        <mxCell id="PJY7Iu9sFLVoZzJT46Wz-69" value="&lt;font style=&quot;font-size: 10px;&quot;&gt;Analyze the email text&lt;br&gt;&lt;/font&gt;" style="points=[[0.25,0,0],[0.5,0,0],[0.75,0,0],[1,0.25,0],[1,0.5,0],[1,0.75,0],[0.75,1,0],[0.5,1,0],[0.25,1,0],[0,0.75,0],[0,0.5,0],[0,0.25,0]];shape=mxgraph.bpmn.task;whiteSpace=wrap;rectStyle=rounded;size=10;html=1;container=1;expand=0;collapsible=0;taskMarker=abstract;" vertex="1" parent="PJY7Iu9sFLVoZzJT46Wz-45">
          <mxGeometry x="525" y="200" width="120" height="80" as="geometry" />
        </mxCell>
        <mxCell id="PJY7Iu9sFLVoZzJT46Wz-70" style="edgeStyle=orthogonalEdgeStyle;rounded=0;orthogonalLoop=1;jettySize=auto;html=1;entryX=0;entryY=0.5;entryDx=0;entryDy=0;entryPerimeter=0;" edge="1" parent="PJY7Iu9sFLVoZzJT46Wz-45" source="PJY7Iu9sFLVoZzJT46Wz-67" target="PJY7Iu9sFLVoZzJT46Wz-69">
          <mxGeometry relative="1" as="geometry" />
        </mxCell>
        <mxCell id="PJY7Iu9sFLVoZzJT46Wz-77" value="&lt;font style=&quot;font-size: 10px;&quot;&gt;No&lt;/font&gt;" style="text;html=1;align=center;verticalAlign=middle;whiteSpace=wrap;rounded=0;" vertex="1" parent="PJY7Iu9sFLVoZzJT46Wz-45">
          <mxGeometry x="540" y="110" width="60" height="30" as="geometry" />
        </mxCell>
        <mxCell id="PJY7Iu9sFLVoZzJT46Wz-78" value="" style="rhombus;whiteSpace=wrap;html=1;" vertex="1" parent="PJY7Iu9sFLVoZzJT46Wz-45">
          <mxGeometry x="690" y="210" width="60" height="60" as="geometry" />
        </mxCell>
        <mxCell id="PJY7Iu9sFLVoZzJT46Wz-79" value="&lt;font style=&quot;font-size: 10px;&quot;&gt;Is phishing?&lt;/font&gt;" style="text;html=1;align=center;verticalAlign=middle;whiteSpace=wrap;rounded=0;" vertex="1" parent="PJY7Iu9sFLVoZzJT46Wz-45">
          <mxGeometry x="697.5" y="220" width="45" height="30" as="geometry" />
        </mxCell>
        <mxCell id="PJY7Iu9sFLVoZzJT46Wz-83" style="edgeStyle=orthogonalEdgeStyle;rounded=0;orthogonalLoop=1;jettySize=auto;html=1;entryX=0;entryY=0.5;entryDx=0;entryDy=0;entryPerimeter=0;" edge="1" parent="PJY7Iu9sFLVoZzJT46Wz-45" source="PJY7Iu9sFLVoZzJT46Wz-78">
          <mxGeometry relative="1" as="geometry">
            <mxPoint x="799.9999999999998" y="240" as="targetPoint" />
          </mxGeometry>
        </mxCell>
        <mxCell id="PJY7Iu9sFLVoZzJT46Wz-90" value="&lt;font style=&quot;font-size: 10px;&quot;&gt;No&lt;/font&gt;" style="text;html=1;align=center;verticalAlign=middle;whiteSpace=wrap;rounded=0;" vertex="1" parent="PJY7Iu9sFLVoZzJT46Wz-45">
          <mxGeometry x="742.5" y="220" width="40" height="20" as="geometry" />
        </mxCell>
        <mxCell id="PJY7Iu9sFLVoZzJT46Wz-91" value="&lt;font style=&quot;font-size: 10px;&quot;&gt;Send result to user&lt;/font&gt;" style="points=[[0.25,0,0],[0.5,0,0],[0.75,0,0],[1,0.25,0],[1,0.5,0],[1,0.75,0],[0.75,1,0],[0.5,1,0],[0.25,1,0],[0,0.75,0],[0,0.5,0],[0,0.25,0]];shape=mxgraph.bpmn.task;whiteSpace=wrap;rectStyle=rounded;size=10;html=1;container=1;expand=0;collapsible=0;taskMarker=abstract;" vertex="1" parent="PJY7Iu9sFLVoZzJT46Wz-45">
          <mxGeometry x="800" y="200" width="120" height="80" as="geometry" />
        </mxCell>
        <mxCell id="PJY7Iu9sFLVoZzJT46Wz-95" value="&lt;font style=&quot;font-size: 10px;&quot;&gt;Receives the email&lt;br&gt;&lt;/font&gt;" style="points=[[0.145,0.145,0],[0.5,0,0],[0.855,0.145,0],[1,0.5,0],[0.855,0.855,0],[0.5,1,0],[0.145,0.855,0],[0,0.5,0]];shape=mxgraph.bpmn.event;html=1;verticalLabelPosition=bottom;labelBackgroundColor=#ffffff;verticalAlign=top;align=center;perimeter=ellipsePerimeter;outlineConnect=0;aspect=fixed;outline=standard;symbol=message;" vertex="1" parent="PJY7Iu9sFLVoZzJT46Wz-45">
          <mxGeometry x="100" y="60" width="40" height="40" as="geometry" />
        </mxCell>
        <mxCell id="PJY7Iu9sFLVoZzJT46Wz-107" style="edgeStyle=orthogonalEdgeStyle;rounded=0;orthogonalLoop=1;jettySize=auto;html=1;" edge="1" parent="PJY7Iu9sFLVoZzJT46Wz-45" source="PJY7Iu9sFLVoZzJT46Wz-101" target="PJY7Iu9sFLVoZzJT46Wz-106">
          <mxGeometry relative="1" as="geometry" />
        </mxCell>
        <mxCell id="PJY7Iu9sFLVoZzJT46Wz-101" value="&lt;font style=&quot;font-size: 10px;&quot;&gt;Email text data&lt;br&gt;&lt;/font&gt;" style="points=[[0.145,0.145,0],[0.5,0,0],[0.855,0.145,0],[1,0.5,0],[0.855,0.855,0],[0.5,1,0],[0.145,0.855,0],[0,0.5,0]];shape=mxgraph.bpmn.event;html=1;verticalLabelPosition=bottom;labelBackgroundColor=#ffffff;verticalAlign=top;align=center;perimeter=ellipsePerimeter;outlineConnect=0;aspect=fixed;outline=catching;symbol=message;" vertex="1" parent="PJY7Iu9sFLVoZzJT46Wz-45">
          <mxGeometry x="560" y="380" width="40" height="40" as="geometry" />
        </mxCell>
        <mxCell id="PJY7Iu9sFLVoZzJT46Wz-102" value="&lt;font style=&quot;font-size: 10px;&quot;&gt;Send result to user&lt;/font&gt;" style="points=[[0.25,0,0],[0.5,0,0],[0.75,0,0],[1,0.25,0],[1,0.5,0],[1,0.75,0],[0.75,1,0],[0.5,1,0],[0.25,1,0],[0,0.75,0],[0,0.5,0],[0,0.25,0]];shape=mxgraph.bpmn.task;whiteSpace=wrap;rectStyle=rounded;size=10;html=1;container=1;expand=0;collapsible=0;taskMarker=abstract;" vertex="1" parent="PJY7Iu9sFLVoZzJT46Wz-45">
          <mxGeometry x="630" y="40" width="120" height="80" as="geometry" />
        </mxCell>
        <mxCell id="PJY7Iu9sFLVoZzJT46Wz-103" style="edgeStyle=orthogonalEdgeStyle;rounded=0;orthogonalLoop=1;jettySize=auto;html=1;entryX=0;entryY=0.5;entryDx=0;entryDy=0;entryPerimeter=0;" edge="1" parent="PJY7Iu9sFLVoZzJT46Wz-45" source="PJY7Iu9sFLVoZzJT46Wz-62" target="PJY7Iu9sFLVoZzJT46Wz-102">
          <mxGeometry relative="1" as="geometry" />
        </mxCell>
        <mxCell id="PJY7Iu9sFLVoZzJT46Wz-104" value="&lt;font style=&quot;font-size: 10px;&quot;&gt;Yes&lt;/font&gt;" style="text;html=1;align=center;verticalAlign=middle;whiteSpace=wrap;rounded=0;" vertex="1" parent="PJY7Iu9sFLVoZzJT46Wz-45">
          <mxGeometry x="577.5" y="60" width="40" height="20" as="geometry" />
        </mxCell>
        <mxCell id="PJY7Iu9sFLVoZzJT46Wz-119" style="edgeStyle=orthogonalEdgeStyle;rounded=0;orthogonalLoop=1;jettySize=auto;html=1;" edge="1" parent="PJY7Iu9sFLVoZzJT46Wz-45" source="PJY7Iu9sFLVoZzJT46Wz-106" target="PJY7Iu9sFLVoZzJT46Wz-118">
          <mxGeometry relative="1" as="geometry" />
        </mxCell>
        <mxCell id="PJY7Iu9sFLVoZzJT46Wz-106" value="&lt;font style=&quot;font-size: 10px;&quot;&gt;Classifies the emotion contained in the text&lt;/font&gt;" style="points=[[0.25,0,0],[0.5,0,0],[0.75,0,0],[1,0.25,0],[1,0.5,0],[1,0.75,0],[0.75,1,0],[0.5,1,0],[0.25,1,0],[0,0.75,0],[0,0.5,0],[0,0.25,0]];shape=mxgraph.bpmn.task;whiteSpace=wrap;rectStyle=rounded;size=10;html=1;container=1;expand=0;collapsible=0;taskMarker=abstract;" vertex="1" parent="PJY7Iu9sFLVoZzJT46Wz-45">
          <mxGeometry x="660" y="360" width="120" height="80" as="geometry" />
        </mxCell>
        <mxCell id="PJY7Iu9sFLVoZzJT46Wz-108" style="edgeStyle=orthogonalEdgeStyle;rounded=0;orthogonalLoop=1;jettySize=auto;html=1;entryX=0.5;entryY=0;entryDx=0;entryDy=0;entryPerimeter=0;dashed=1;" edge="1" parent="PJY7Iu9sFLVoZzJT46Wz-45" source="PJY7Iu9sFLVoZzJT46Wz-67" target="PJY7Iu9sFLVoZzJT46Wz-101">
          <mxGeometry relative="1" as="geometry">
            <Array as="points">
              <mxPoint x="420" y="300" />
              <mxPoint x="580" y="300" />
            </Array>
          </mxGeometry>
        </mxCell>
        <mxCell id="PJY7Iu9sFLVoZzJT46Wz-109" style="edgeStyle=orthogonalEdgeStyle;rounded=0;orthogonalLoop=1;jettySize=auto;html=1;entryX=0.5;entryY=0;entryDx=0;entryDy=0;entryPerimeter=0;" edge="1" parent="PJY7Iu9sFLVoZzJT46Wz-45" source="PJY7Iu9sFLVoZzJT46Wz-78" target="PJY7Iu9sFLVoZzJT46Wz-106">
          <mxGeometry relative="1" as="geometry" />
        </mxCell>
        <mxCell id="PJY7Iu9sFLVoZzJT46Wz-110" value="&lt;font style=&quot;font-size: 10px;&quot;&gt;Yes&lt;/font&gt;" style="text;html=1;align=center;verticalAlign=middle;whiteSpace=wrap;rounded=0;" vertex="1" parent="PJY7Iu9sFLVoZzJT46Wz-45">
          <mxGeometry x="720" y="270" width="40" height="20" as="geometry" />
        </mxCell>
        <mxCell id="PJY7Iu9sFLVoZzJT46Wz-111" value="" style="endArrow=none;html=1;rounded=0;" edge="1" parent="PJY7Iu9sFLVoZzJT46Wz-45">
          <mxGeometry width="50" height="50" relative="1" as="geometry">
            <mxPoint x="720" y="300" as="sourcePoint" />
            <mxPoint x="860" y="300" as="targetPoint" />
          </mxGeometry>
        </mxCell>
        <mxCell id="PJY7Iu9sFLVoZzJT46Wz-116" value="" style="group" vertex="1" connectable="0" parent="PJY7Iu9sFLVoZzJT46Wz-45">
          <mxGeometry x="1020" y="380" width="40" height="40" as="geometry" />
        </mxCell>
        <mxCell id="PJY7Iu9sFLVoZzJT46Wz-114" value="" style="points=[[0.145,0.145,0],[0.5,0,0],[0.855,0.145,0],[1,0.5,0],[0.855,0.855,0],[0.5,1,0],[0.145,0.855,0],[0,0.5,0]];shape=mxgraph.bpmn.event;html=1;verticalLabelPosition=bottom;labelBackgroundColor=#ffffff;verticalAlign=top;align=center;perimeter=ellipsePerimeter;outlineConnect=0;aspect=fixed;outline=end;symbol=terminate2;" vertex="1" parent="PJY7Iu9sFLVoZzJT46Wz-116">
          <mxGeometry width="40" height="40" as="geometry" />
        </mxCell>
        <mxCell id="PJY7Iu9sFLVoZzJT46Wz-115" value="" style="ellipse;whiteSpace=wrap;html=1;aspect=fixed;fillColor=#000000;" vertex="1" parent="PJY7Iu9sFLVoZzJT46Wz-116">
          <mxGeometry x="5" y="5" width="30" height="30" as="geometry" />
        </mxCell>
        <mxCell id="PJY7Iu9sFLVoZzJT46Wz-118" value="&lt;font style=&quot;font-size: 10px;&quot;&gt;Send result to CSIRT team&lt;/font&gt;" style="points=[[0.25,0,0],[0.5,0,0],[0.75,0,0],[1,0.25,0],[1,0.5,0],[1,0.75,0],[0.75,1,0],[0.5,1,0],[0.25,1,0],[0,0.75,0],[0,0.5,0],[0,0.25,0]];shape=mxgraph.bpmn.task;whiteSpace=wrap;rectStyle=rounded;size=10;html=1;container=1;expand=0;collapsible=0;taskMarker=abstract;" vertex="1" parent="PJY7Iu9sFLVoZzJT46Wz-45">
          <mxGeometry x="830" y="360" width="120" height="80" as="geometry" />
        </mxCell>
        <mxCell id="PJY7Iu9sFLVoZzJT46Wz-120" style="edgeStyle=orthogonalEdgeStyle;rounded=0;orthogonalLoop=1;jettySize=auto;html=1;entryX=0;entryY=0.5;entryDx=0;entryDy=0;entryPerimeter=0;" edge="1" parent="PJY7Iu9sFLVoZzJT46Wz-45" source="PJY7Iu9sFLVoZzJT46Wz-118" target="PJY7Iu9sFLVoZzJT46Wz-114">
          <mxGeometry relative="1" as="geometry" />
        </mxCell>
        <mxCell id="65oWGjf6kvw_fNRpGqXh-5" value="" style="group" vertex="1" connectable="0" parent="PJY7Iu9sFLVoZzJT46Wz-45">
          <mxGeometry x="970" y="220" width="40" height="40" as="geometry" />
        </mxCell>
        <mxCell id="65oWGjf6kvw_fNRpGqXh-6" value="" style="points=[[0.145,0.145,0],[0.5,0,0],[0.855,0.145,0],[1,0.5,0],[0.855,0.855,0],[0.5,1,0],[0.145,0.855,0],[0,0.5,0]];shape=mxgraph.bpmn.event;html=1;verticalLabelPosition=bottom;labelBackgroundColor=#ffffff;verticalAlign=top;align=center;perimeter=ellipsePerimeter;outlineConnect=0;aspect=fixed;outline=end;symbol=terminate2;" vertex="1" parent="65oWGjf6kvw_fNRpGqXh-5">
          <mxGeometry width="40" height="40" as="geometry" />
        </mxCell>
        <mxCell id="65oWGjf6kvw_fNRpGqXh-7" value="" style="ellipse;whiteSpace=wrap;html=1;aspect=fixed;fillColor=#000000;" vertex="1" parent="65oWGjf6kvw_fNRpGqXh-5">
          <mxGeometry x="5" y="5" width="30" height="30" as="geometry" />
        </mxCell>
        <mxCell id="65oWGjf6kvw_fNRpGqXh-8" style="edgeStyle=orthogonalEdgeStyle;rounded=0;orthogonalLoop=1;jettySize=auto;html=1;entryX=0;entryY=0.5;entryDx=0;entryDy=0;entryPerimeter=0;" edge="1" parent="PJY7Iu9sFLVoZzJT46Wz-45" source="PJY7Iu9sFLVoZzJT46Wz-91" target="65oWGjf6kvw_fNRpGqXh-6">
          <mxGeometry relative="1" as="geometry" />
        </mxCell>
        <mxCell id="65oWGjf6kvw_fNRpGqXh-11" value="" style="group" vertex="1" connectable="0" parent="PJY7Iu9sFLVoZzJT46Wz-45">
          <mxGeometry x="800" y="60" width="40" height="40" as="geometry" />
        </mxCell>
        <mxCell id="65oWGjf6kvw_fNRpGqXh-12" value="" style="points=[[0.145,0.145,0],[0.5,0,0],[0.855,0.145,0],[1,0.5,0],[0.855,0.855,0],[0.5,1,0],[0.145,0.855,0],[0,0.5,0]];shape=mxgraph.bpmn.event;html=1;verticalLabelPosition=bottom;labelBackgroundColor=#ffffff;verticalAlign=top;align=center;perimeter=ellipsePerimeter;outlineConnect=0;aspect=fixed;outline=end;symbol=terminate2;" vertex="1" parent="65oWGjf6kvw_fNRpGqXh-11">
          <mxGeometry width="40" height="40" as="geometry" />
        </mxCell>
        <mxCell id="65oWGjf6kvw_fNRpGqXh-13" value="" style="ellipse;whiteSpace=wrap;html=1;aspect=fixed;fillColor=#000000;" vertex="1" parent="65oWGjf6kvw_fNRpGqXh-11">
          <mxGeometry x="5" y="5" width="30" height="30" as="geometry" />
        </mxCell>
        <mxCell id="65oWGjf6kvw_fNRpGqXh-14" style="edgeStyle=orthogonalEdgeStyle;rounded=0;orthogonalLoop=1;jettySize=auto;html=1;entryX=0;entryY=0.5;entryDx=0;entryDy=0;entryPerimeter=0;" edge="1" parent="PJY7Iu9sFLVoZzJT46Wz-45" source="PJY7Iu9sFLVoZzJT46Wz-102" target="65oWGjf6kvw_fNRpGqXh-12">
          <mxGeometry relative="1" as="geometry" />
        </mxCell>
        <mxCell id="PJY7Iu9sFLVoZzJT46Wz-99" style="edgeStyle=orthogonalEdgeStyle;rounded=0;orthogonalLoop=1;jettySize=auto;html=1;dashed=1;" edge="1" parent="1" source="PJY7Iu9sFLVoZzJT46Wz-91" target="PJY7Iu9sFLVoZzJT46Wz-94">
          <mxGeometry relative="1" as="geometry" />
        </mxCell>
        <mxCell id="PJY7Iu9sFLVoZzJT46Wz-105" style="edgeStyle=orthogonalEdgeStyle;rounded=0;orthogonalLoop=1;jettySize=auto;html=1;entryX=0.5;entryY=1;entryDx=0;entryDy=0;entryPerimeter=0;dashed=1;" edge="1" parent="1" source="PJY7Iu9sFLVoZzJT46Wz-102" target="PJY7Iu9sFLVoZzJT46Wz-94">
          <mxGeometry relative="1" as="geometry">
            <Array as="points">
              <mxPoint x="770" y="200" />
              <mxPoint x="940" y="200" />
            </Array>
          </mxGeometry>
        </mxCell>
        <mxCell id="PJY7Iu9sFLVoZzJT46Wz-113" value="" style="endArrow=classic;html=1;rounded=0;entryX=0.5;entryY=1;entryDx=0;entryDy=0;entryPerimeter=0;" edge="1" parent="1" target="PJY7Iu9sFLVoZzJT46Wz-91">
          <mxGeometry width="50" height="50" relative="1" as="geometry">
            <mxPoint x="940" y="580" as="sourcePoint" />
            <mxPoint x="850" y="520" as="targetPoint" />
          </mxGeometry>
        </mxCell>
        <mxCell id="65oWGjf6kvw_fNRpGqXh-1" style="edgeStyle=orthogonalEdgeStyle;rounded=0;orthogonalLoop=1;jettySize=auto;html=1;dashed=1;" edge="1" parent="1" source="PJY7Iu9sFLVoZzJT46Wz-43" target="PJY7Iu9sFLVoZzJT46Wz-95">
          <mxGeometry relative="1" as="geometry">
            <Array as="points">
              <mxPoint x="320" y="200" />
              <mxPoint x="200" y="200" />
            </Array>
          </mxGeometry>
        </mxCell>
      </root>
    </mxGraphModel>
  </diagram>
</mxfile>
